<svg width="1200" height="720" viewBox="0 0 1200 720" fill="none" xmlns="http://www.w3.org/2000/svg">
  <defs>
    <linearGradient id="bg" x1="0" y1="0" x2="1200" y2="720" gradientUnits="userSpaceOnUse">
      <stop stop-color="#F0FDF4"/><stop offset="0.6" stop-color="#F8FAFC"/><stop offset="1" stop-color="#EFF6FF"/>
    </linearGradient>
    <filter id="shadow" x="-20%" y="-20%" width="140%" height="140%">
      <feDropShadow dx="0" dy="22" stdDeviation="26" flood-color="#0F172A" flood-opacity="0.16"/>
    </filter>
    <style>
      text { font-family: Inter, "Segoe UI", "Microsoft YaHei", Arial, sans-serif; }
      .title { fill:#0F172A; font-size:34px; font-weight:850; }
      .label { fill:#334155; font-size:17px; font-weight:800; }
      .muted { fill:#64748B; font-size:16px; }
      .field { fill:#F8FAFC; stroke:#DCE6F3; }
    </style>
  </defs>
  <rect width="1200" height="720" rx="32" fill="url(#bg)"/>
  <rect x="72" y="54" width="706" height="612" rx="34" fill="white" filter="url(#shadow)"/>
  <text x="126" y="124" class="title">Create your account</text>
  <text x="126" y="162" class="muted">身份资料可以自动填写注册、联系、地址和业务字段。</text>
  <text x="126" y="224" class="label">Full name</text>
  <text x="466" y="224" class="label">Company</text>
  <rect x="126" y="244" width="290" height="62" rx="16" class="field"/>
  <rect x="466" y="244" width="252" height="62" rx="16" class="field"/>
  <text x="156" y="282" fill="#94A3B8" font-size="20">Enter full name</text>
  <text x="496" y="282" fill="#94A3B8" font-size="20">Company</text>
  <text x="126" y="358" class="label">Email</text>
  <rect x="126" y="378" width="592" height="62" rx="16" class="field"/>
  <text x="156" y="416" fill="#94A3B8" font-size="20">email@example.com</text>
  <text x="126" y="492" class="label">Country</text>
  <text x="466" y="492" class="label">State / Region</text>
  <rect x="126" y="512" width="290" height="62" rx="16" class="field"/>
  <rect x="466" y="512" width="252" height="62" rx="16" class="field"/>
  <text x="156" y="550" fill="#94A3B8" font-size="20">United States</text>
  <text x="496" y="550" fill="#94A3B8" font-size="20">Texas</text>
  <rect x="780" y="96" width="346" height="520" rx="24" fill="white" stroke="#D8E3F1" filter="url(#shadow)"/>
  <rect x="780" y="96" width="346" height="58" rx="24" fill="#F8FAFC"/>
  <text x="810" y="132" fill="#334155" font-size="17" font-weight="850">填写身份ID</text>
  <text x="1044" y="132" fill="#475569" font-size="24">⌄</text>
  <rect x="804" y="178" width="298" height="48" rx="13" fill="#F8FAFC" stroke="#DCE6F3"/>
  <text x="834" y="208" fill="#64748B" font-size="16">搜索身份资料</text>
  <text x="804" y="260" fill="#64748B" font-size="15" font-weight="850">最近使用的身份信息</text>
  <g>
    <rect x="804" y="278" width="298" height="72" rx="14" fill="#EEF4FF"/>
    <circle cx="838" cy="314" r="20" fill="#DCFCE7" stroke="#86EFAC"/>
    <text x="828" y="321" fill="#16A34A" font-size="18" font-weight="900">车</text>
    <text x="876" y="306" fill="#0F172A" font-size="20" font-weight="850">车险005</text>
    <text x="876" y="330" class="muted">车险 · Kami Gonzales</text>
    <text x="1064" y="322" fill="#475569" font-size="26">⋮</text>
  </g>
  <g>
    <rect x="804" y="356" width="298" height="72" rx="14" fill="#FFFFFF"/>
    <circle cx="838" cy="392" r="20" fill="#FEF3C7" stroke="#FACC15"/>
    <text x="828" y="399" fill="#CA8A04" font-size="18" font-weight="900">证</text>
    <text x="876" y="384" fill="#0F172A" font-size="20" font-weight="850">Loen Chen</text>
    <text x="876" y="408" class="muted">个人资料 · US</text>
    <text x="1064" y="400" fill="#475569" font-size="26">⋮</text>
  </g>
  <g>
    <rect x="804" y="434" width="298" height="72" rx="14" fill="#FFFFFF"/>
    <circle cx="838" cy="470" r="20" fill="#FCE7F3" stroke="#F9A8D4"/>
    <text x="828" y="477" fill="#DB2777" font-size="18" font-weight="900">企</text>
    <text x="876" y="462" fill="#0F172A" font-size="20" font-weight="850">Loan Profile</text>
    <text x="876" y="486" class="muted">贷款资料 · 42 字段</text>
    <text x="1064" y="478" fill="#475569" font-size="26">⋮</text>
  </g>
  <rect x="804" y="540" width="142" height="52" rx="14" fill="#2563EB"/>
  <text x="840" y="573" fill="white" font-size="18" font-weight="850">填表</text>
  <rect x="960" y="540" width="142" height="52" rx="14" fill="#F8FAFC" stroke="#CBD5E1"/>
  <text x="994" y="573" fill="#334155" font-size="18" font-weight="850">编辑</text>
</svg>
