<svg width="1200" height="720" viewBox="0 0 1200 720" fill="none" xmlns="http://www.w3.org/2000/svg">
  <defs>
    <linearGradient id="bg" x1="0" y1="0" x2="1200" y2="720" gradientUnits="userSpaceOnUse">
      <stop stop-color="#F8FAFC"/><stop offset="1" stop-color="#EEF2FF"/>
    </linearGradient>
    <linearGradient id="button" x1="0" y1="0" x2="1" y2="1">
      <stop stop-color="#2F7AFB"/><stop offset="1" stop-color="#1456D9"/>
    </linearGradient>
    <filter id="shadow" x="-25%" y="-25%" width="150%" height="150%">
      <feDropShadow dx="0" dy="24" stdDeviation="28" flood-color="#0F172A" flood-opacity="0.18"/>
    </filter>
    <style>
      text { font-family: Inter, "Segoe UI", "Microsoft YaHei", Arial, sans-serif; }
      .dark { fill:#0F172A; font-weight:800; }
      .muted { fill:#64748B; }
      .label { fill:#334155; font-size:15px; font-weight:750; }
    </style>
  </defs>
  <rect width="1200" height="720" rx="32" fill="url(#bg)"/>
  <rect x="88" y="88" width="540" height="544" rx="34" fill="white" filter="url(#shadow)"/>
  <circle cx="358" cy="158" r="42" fill="#EFF6FF"/>
  <path d="M340 158h36M358 140v36" stroke="#2563EB" stroke-width="8" stroke-linecap="round"/>
  <text x="275" y="242" class="dark" font-size="38">Sign in</text>
  <text x="142" y="306" class="label">Email</text>
  <rect x="142" y="324" width="392" height="50" rx="13" fill="#F8FAFC" stroke="#CBD5E1"/>
  <text x="168" y="356" class="muted" font-size="20">leon@example.com</text>
  <rect x="512" y="315" width="54" height="54" rx="15" fill="#FFFFFF" stroke="#BFDBFE" filter="url(#shadow)"/>
  <path d="M539 328l16 6v13c0 11-7 17-16 20-9-3-16-9-16-20v-13l16-6z" fill="#2563EB"/>
  <path d="M531 346l6 6 11-14" stroke="white" stroke-width="4" stroke-linecap="round" stroke-linejoin="round"/>
  <text x="142" y="418" class="label">Password</text>
  <rect x="142" y="436" width="392" height="50" rx="13" fill="#F8FAFC" stroke="#CBD5E1"/>
  <text x="168" y="468" fill="#111827" font-size="22">••••••••••••••</text>
  <rect x="142" y="540" width="392" height="58" rx="14" fill="url(#button)"/>
  <text x="304" y="577" fill="white" font-size="20" font-weight="850">Sign in</text>
  <rect x="652" y="204" width="372" height="380" rx="22" fill="white" stroke="#D8E3F1" filter="url(#shadow)"/>
  <rect x="674" y="226" width="328" height="52" rx="14" fill="#F8FAFC" stroke="#DCE6F3"/>
  <circle cx="700" cy="252" r="10" stroke="#94A3B8" stroke-width="3"/>
  <path d="M708 260l10 10" stroke="#94A3B8" stroke-width="3" stroke-linecap="round"/>
  <text x="734" y="259" class="muted" font-size="17">搜索账号、身份资料</text>
  <rect x="652" y="298" width="372" height="38" fill="#F1F5F9"/>
  <text x="680" y="323" fill="#64748B" font-size="15" font-weight="800">登录账号</text>
  <rect x="652" y="336" width="372" height="76" fill="#EEF4FF"/>
  <rect x="678" y="356" width="38" height="38" rx="10" fill="#DBEAFE" stroke="#BFDBFE"/>
  <text x="690" y="382" fill="#2563EB" font-size="20" font-weight="900">A</text>
  <text x="734" y="367" class="dark" font-size="19">Affise</text>
  <text x="734" y="394" class="muted" font-size="16">huling@example.com</text>
  <text x="956" y="382" fill="#475569" font-size="28">⋮</text>
  <rect x="652" y="412" width="372" height="76" fill="white"/>
  <rect x="678" y="432" width="38" height="38" rx="10" fill="#E0F2FE" stroke="#BAE6FD"/>
  <text x="690" y="458" fill="#0284C7" font-size="20" font-weight="900">A</text>
  <text x="734" y="443" class="dark" font-size="19">Affise (leon@example.com)</text>
  <text x="734" y="470" class="muted" font-size="16">leon@example.com</text>
  <text x="956" y="458" fill="#475569" font-size="28">⋮</text>
  <rect x="652" y="488" width="372" height="48" fill="#F8FAFC"/>
  <text x="680" y="518" fill="#64748B" font-size="16">最近使用的身份信息</text>
  <circle cx="696" cy="562" r="20" fill="#DCFCE7" stroke="#86EFAC"/>
  <text x="686" y="569" fill="#16A34A" font-size="19" font-weight="900">车</text>
  <text x="734" y="558" class="dark" font-size="18">车险005</text>
  <text x="734" y="580" class="muted" font-size="15">车险 · Kami Gonzales</text>
  <rect x="1036" y="316" width="72" height="72" rx="22" fill="white" stroke="#DCE6F3" filter="url(#shadow)"/>
  <rect x="1054" y="336" width="36" height="32" rx="9" fill="#E0FFE9" stroke="#16A34A"/>
  <circle cx="1065" cy="350" r="4" fill="#111827"/>
  <circle cx="1079" cy="350" r="4" fill="#111827"/>
  <rect x="1061" y="363" width="22" height="4" rx="2" fill="#16A34A"/>
  <text x="88" y="676" fill="#334155" font-size="22" font-weight="850">悬停选择账号，快速填充并登录</text>
</svg>
