<svg xmlns="http://www.w3.org/2000/svg" viewBox="0 0 64 64" role="img" aria-label="Default site icon">
  <rect x="2" y="2" width="60" height="60" rx="14" fill="#EAF2FF"/>
  <rect x="2.5" y="2.5" width="59" height="59" rx="13.5" fill="none" stroke="#BBD2FF"/>
  <path d="M32 13.5 45 18v10.5c0 12.4-7.1 20.7-13 23.5-5.9-2.8-13-11.1-13-23.5V18l13-4.5Z" fill="#2563EB"/>
  <path d="M32 21 38.5 23.3v5.6c0 6-3 10.3-6.5 12.3-3.5-2-6.5-6.3-6.5-12.3v-5.6L32 21Z" fill="#FFFFFF" opacity=".96"/>
  <circle cx="32" cy="29" r="3.5" fill="#2563EB"/>
  <path d="M30.5 32h3l1 7h-5l1-7Z" fill="#2563EB"/>
</svg>
