<svg xmlns="http://www.w3.org/2000/svg" viewBox="0 0 128 128" role="img" aria-label="KeyPilot">
  <rect width="128" height="128" rx="30" fill="#2563EB"/>
  <rect x="12" y="12" width="104" height="104" rx="24" fill="none" stroke="#78A7FF" stroke-width="2" opacity=".55"/>
  <path d="M64 25 91 35v22c0 25-14.5 41.5-27 47-12.5-5.5-27-22-27-47V35l27-10Z" fill="#FFFFFF"/>
  <path d="M64 36 81 42v15c0 16.5-8.5 27.2-17 31.6-8.5-4.4-17-15.1-17-31.6V42l17-6Z" fill="#2563EB"/>
  <path d="m58.8 66.6-8.2-8.2-5.6 5.6 13.8 13.8 24.4-24.4-5.6-5.6-18.8 18.8Z" fill="#FFFFFF"/>
</svg>
